<svg width="32" height="32" viewBox="0 0 32 32" fill="none" xmlns="http://www.w3.org/2000/svg">
<path d="M13.7859 4L19.3959 22.3105H19.6041L25.2141 4H32L23.536 29H15.464L7 4H13.7859Z" fill="black"/>
<path d="M4.0001 29C2.89244 29 1.94374 28.608 1.15402 27.824C0.37455 27.04 -0.0100563 26.0909 0.000199795 24.9768C-0.0100563 23.8833 0.37455 22.9497 1.15402 22.176C1.94374 21.392 2.89244 21 4.0001 21C5.04623 21 5.96928 21.392 6.76926 22.176C7.5795 22.9497 7.98974 23.8833 8 24.9768C7.98974 25.7195 7.79488 26.3952 7.4154 27.0039C7.04618 27.6125 6.55901 28.0974 5.9539 28.4584C5.35904 28.8195 4.70777 29 4.0001 29Z" fill="#FF3654"/>
</svg>
