<svg width="24" height="32" viewBox="0 0 24 32" fill="none" xmlns="http://www.w3.org/2000/svg">
<path d="M3.73039 16.765L3.02485 12.6852C2.84863 11.6662 3.63226 10.7342 4.66523 10.7342H9.84632C10.3598 10.7342 10.7509 10.2733 10.6677 9.76598L10.0051 5.72142C9.8974 5.06435 9.92815 4.392 10.0953 3.74752C10.2338 3.21364 10.6457 2.78495 11.1874 2.61093L11.3324 2.56435C11.6598 2.45918 12.0171 2.48365 12.3258 2.63239C12.6656 2.79611 12.9141 3.09473 13.0062 3.44989L13.482 5.28374C13.6333 5.86723 13.8538 6.43045 14.1381 6.96262C14.5534 7.74017 15.1956 8.36246 15.8631 8.93769L17.3019 10.1775C17.7075 10.5271 17.9206 11.0506 17.8744 11.5844L17.0622 20.9771C16.9877 21.8386 16.2674 22.5 15.4037 22.5H10.755C7.27375 22.5 4.30271 20.0744 3.73039 16.765Z" fill="white"/>
<path fill-rule="evenodd" clip-rule="evenodd" d="M21.0323 9.98508C20.6311 9.96777 20.2874 10.2696 20.2528 10.6698L19.2812 21.9063C19.2188 22.6281 19.7873 23.2502 20.5133 23.2502C21.1971 23.2502 21.75 22.6954 21.75 22.0129V10.7344C21.75 10.3327 21.4336 10.0024 21.0323 9.98508Z" fill="white"/>
</svg>
