<svg width="24" height="32" viewBox="0 0 24 32" fill="none" xmlns="http://www.w3.org/2000/svg">
<path d="M20.2699 15.985L20.9754 20.0648C21.1516 21.0838 20.368 22.0158 19.335 22.0158H14.1539C13.6404 22.0158 13.2494 22.4767 13.3325 22.984L13.9952 27.0286C14.1028 27.6857 14.0721 28.358 13.9049 29.0025C13.7664 29.5364 13.3545 29.965 12.8128 30.1391L12.6678 30.1856C12.3404 30.2908 11.9831 30.2663 11.6744 30.1176C11.3347 29.9539 11.0861 29.6553 10.994 29.3001L10.5183 27.4663C10.3669 26.8828 10.1465 26.3195 9.86218 25.7874C9.44683 25.0098 8.80465 24.3875 8.13711 23.8123L6.69838 22.5725C6.29272 22.2229 6.07968 21.6994 6.12584 21.1656L6.93801 11.7729C7.0125 10.9114 7.7328 10.25 8.59658 10.25H13.2452C16.7265 10.25 19.6975 12.6756 20.2699 15.985Z" fill="white"/>
<path fill-rule="evenodd" clip-rule="evenodd" d="M2.96767 22.7651C3.36893 22.7824 3.71261 22.4806 3.74721 22.0804L4.71881 10.8439C4.78122 10.1221 4.21268 9.5 3.48671 9.5C2.80289 9.5 2.25 10.0547 2.25 10.7373V22.0158C2.25 22.4174 2.5664 22.7478 2.96767 22.7651Z" fill="white"/>
</svg>
