<svg width="60" height="60" viewBox="0 0 60 60" fill="none" xmlns="http://www.w3.org/2000/svg">
<circle cx="30" cy="30" r="30" fill="black"/>
<path d="M24.5397 16.5517L30.5967 36.3891H30.8215L36.8786 16.5517H44.2052L35.0667 43.6363H26.3515L17.2131 16.5517H24.5397Z" fill="white"/>
<path d="M16.8869 44.0198C15.9347 44.0198 15.1192 43.6848 14.4403 43.0147C13.7703 42.3447 13.4396 41.5336 13.4484 40.5814C13.4396 39.6468 13.7703 38.8489 14.4403 38.1877C15.1192 37.5176 15.9347 37.1826 16.8869 37.1826C17.7862 37.1826 18.5797 37.5176 19.2674 38.1877C19.9639 38.8489 20.3166 39.6468 20.3254 40.5814C20.3166 41.2162 20.1491 41.7936 19.8229 42.3138C19.5055 42.834 19.0867 43.2484 18.5665 43.557C18.0551 43.8655 17.4953 44.0198 16.8869 44.0198Z" fill="#FF3654"/>
</svg>
